<svg width="32" height="32" viewBox="0 0 32 32" fill="none" xmlns="http://www.w3.org/2000/svg">
<g id="Icon">
<path id="Vector" d="M24 17.3307H17.3333V23.9974C17.3333 24.351 17.1928 24.6902 16.9428 24.9402C16.6927 25.1903 16.3536 25.3307 16 25.3307C15.6463 25.3307 15.3072 25.1903 15.0572 24.9402C14.8071 24.6902 14.6666 24.351 14.6666 23.9974V17.3307H7.99996C7.64634 17.3307 7.3072 17.1903 7.05715 16.9402C6.8071 16.6902 6.66663 16.351 6.66663 15.9974C6.66663 15.6438 6.8071 15.3046 7.05715 15.0546C7.3072 14.8045 7.64634 14.6641 7.99996 14.6641H14.6666V7.9974C14.6666 7.64377 14.8071 7.30463 15.0572 7.05459C15.3072 6.80454 15.6463 6.66406 16 6.66406C16.3536 6.66406 16.6927 6.80454 16.9428 7.05459C17.1928 7.30463 17.3333 7.64377 17.3333 7.9974V14.6641H24C24.3536 14.6641 24.6927 14.8045 24.9428 15.0546C25.1928 15.3046 25.3333 15.6438 25.3333 15.9974C25.3333 16.351 25.1928 16.6902 24.9428 16.9402C24.6927 17.1903 24.3536 17.3307 24 17.3307Z" fill="white"/>
</g>
</svg>
