<svg width="32" height="32" viewBox="0 0 32 32" fill="none" xmlns="http://www.w3.org/2000/svg">
<g id="Icon">
<path id="Vector" d="M24 17.3307C13.7669 17.3307 17.4142 17.3307 7.99996 17.3307C7.64634 17.3307 7.3072 17.1903 7.05715 16.9402C6.8071 16.6902 6.66663 16.351 6.66663 15.9974C6.66663 15.6438 6.8071 15.3046 7.05715 15.0546C7.3072 14.8045 7.64634 14.6641 7.99996 14.6641C18.3254 14.6641 14.4915 14.6641 24 14.6641C24.3536 14.6641 24.6927 14.8045 24.9428 15.0546C25.1928 15.3046 25.3333 15.6438 25.3333 15.9974C25.3333 16.351 25.1928 16.6902 24.9428 16.9402C24.6927 17.1903 24.3536 17.3307 24 17.3307Z" fill="white"/>
</g>
</svg>
